<svg width="41" height="38" viewBox="0 0 41 38" fill="none" xmlns="http://www.w3.org/2000/svg">
<g clip-path="url(#clip0_3910_394)">
<path d="M5.80208 12.3093C6.12686 11.4083 6.61774 10.605 7.22669 9.87252C8.07396 8.8533 9.08815 8.03228 10.2075 7.33894C11.7632 6.37531 13.446 5.72215 15.2142 5.28424C17.2321 4.78449 19.2827 4.60254 21.3547 4.70365C24.002 4.83282 26.5499 5.3999 28.9539 6.552C29.6919 6.90564 30.3802 7.34223 31.0015 7.87973C31.4977 8.309 31.8956 8.81603 32.1659 9.42004C32.5129 10.1956 32.5674 11.0086 32.4194 11.8307C32.0987 13.6126 31.1834 15.0241 29.7387 16.0934C29.0561 16.5985 28.3129 16.9938 27.537 17.3286C27.0987 17.5177 26.6532 17.6897 26.2131 17.8747C26.0581 17.9399 25.9059 18.0143 25.7599 18.0978C25.6765 18.1455 25.599 18.2119 25.5355 18.2846C25.444 18.3894 25.4593 18.5482 25.58 18.6167C25.7114 18.6912 25.8578 18.7498 26.0049 18.7835C26.5035 18.8977 27.0114 18.8762 27.5149 18.8384C28.9041 18.734 30.2693 18.4868 31.6056 18.0871C32.6759 17.7669 33.6831 17.3126 34.5861 16.6409C34.6303 16.608 34.6815 16.5842 34.7308 16.5589C34.7387 16.5548 34.7537 16.5647 34.7942 16.5765C34.7646 16.6528 34.741 16.7292 34.7065 16.8002C34.3684 17.4965 33.8929 18.0854 33.3184 18.5963C32.6398 19.1999 31.8764 19.6716 31.0643 20.0681C29.8073 20.6818 28.4833 21.0968 27.1233 21.3968C25.5715 21.739 23.9995 21.9285 22.4131 22.0221C20.8403 22.115 19.2695 22.1053 17.6999 21.9931C15.5523 21.8396 13.4359 21.5037 11.385 20.8175C10.4506 20.5048 9.54832 20.1183 8.69723 19.6165C8.10142 19.2652 7.54491 18.86 7.04904 18.3739C6.27564 17.6158 5.72401 16.7271 5.51585 15.6491C5.29608 14.5108 5.41022 13.3963 5.80208 12.3093Z" fill="white"/>
<path d="M35.2034 27.1958C35.0328 28.075 34.6261 28.844 34.0549 29.5259C33.5239 30.1596 32.8854 30.6632 32.1801 31.0845C31.1338 31.7095 30.0042 32.1271 28.8342 32.4405C27.5437 32.7861 26.2304 33.0011 24.9024 33.1391C23.1409 33.3222 21.3752 33.3933 19.6056 33.3657C18.1172 33.3425 16.6328 33.2477 15.159 33.0295C13.6146 32.8009 12.0998 32.451 10.6515 31.8479C9.70006 31.4517 8.80311 30.9589 8.0056 30.2968C6.96255 29.4308 6.19081 28.3756 5.8061 27.0553C5.65904 26.5506 5.57256 26.0362 5.58172 25.5084C5.58313 25.427 5.59755 25.3458 5.6073 25.2514C5.73877 25.2514 5.84899 25.2401 5.95624 25.2533C6.46001 25.3154 6.96543 25.3201 7.4697 25.2831C8.78123 25.187 9.9682 25.5311 11.0493 26.2758C11.7003 26.7243 12.2975 27.2384 12.868 27.7841C13.3158 28.2124 13.7526 28.6527 14.1919 29.0901C14.7048 29.6007 15.2727 30.034 15.921 30.3564C16.6496 30.7187 17.417 30.9228 18.2325 30.908C18.9878 30.8944 19.7006 30.6982 20.3782 30.3657C20.924 30.0978 21.4188 29.7526 21.8837 29.3614C22.0452 29.2256 22.2065 29.0887 22.3763 28.9638C23.216 28.3464 24.1556 28.1657 25.1711 28.3254C25.7413 28.415 26.288 28.5953 26.8404 28.7556C27.3654 28.908 27.8911 29.0646 28.4256 29.1752C28.9927 29.2926 29.5676 29.2895 30.1368 29.1422C30.7196 28.9913 31.147 28.6521 31.3754 28.0916C31.5079 27.7662 31.5979 27.423 31.7021 27.0862C31.7897 26.8031 31.8592 26.5139 31.956 26.2341C32.2111 25.4966 32.7158 25.0285 33.4737 24.8461C34.0843 24.6991 34.6952 24.5535 35.3309 24.4014C35.3513 24.489 35.3787 24.5537 35.3796 24.6188C35.392 25.4826 35.3683 26.3458 35.2034 27.1958Z" fill="white"/>
<path d="M20.2666 1.86861C20.6392 1.86861 21.0123 1.87712 21.3855 1.894C24.8241 2.04956 28.0988 2.84597 31.1349 4.52169C32.7734 5.42603 34.241 6.55256 35.4555 7.99477C36.4575 9.18475 37.219 10.5088 37.6401 12.0195C38.0302 13.4185 38.1077 14.832 37.8083 16.2575C37.7663 16.4578 37.8073 16.6063 37.913 16.7699C38.3053 17.3773 38.6147 18.0251 38.8152 18.7237C39.1064 19.7391 39.0992 20.7611 38.8864 21.7874C38.752 22.4362 38.4298 22.9672 37.8931 23.3596C37.8369 23.4007 37.7853 23.4484 37.7235 23.4998C37.7235 23.6253 37.7168 23.7519 37.7245 23.8775C37.7937 24.9962 37.7656 26.1113 37.6041 27.2213C37.4467 28.3033 37.1763 29.3553 36.7501 30.362C36.0195 32.0877 34.8291 33.4002 33.2142 34.3281C32.133 34.9493 30.9741 35.3662 29.7711 35.6656C28.557 35.9677 27.3235 36.1514 26.0798 36.2788C24.297 36.4614 22.5111 36.5314 20.7234 36.5314C20.0137 36.5314 19.3033 36.5203 18.5933 36.5009C16.6277 36.4472 14.6736 36.2501 12.745 35.8423C11.3823 35.5541 10.054 35.1567 8.78602 34.5696C7.81197 34.1186 6.90186 33.5641 6.09115 32.853C4.54867 31.5001 3.61045 29.8141 3.30409 27.7682C3.16318 26.8272 3.12349 25.8834 3.12517 24.9352C3.12557 24.7091 3.12524 24.4831 3.12524 24.254C3.08946 24.2109 3.05743 24.1637 3.01719 24.1252C2.29542 23.4353 1.99186 22.5556 1.89038 21.5878C1.83418 21.0519 1.84805 20.5141 1.88644 19.9771C1.90889 19.6633 2.00077 19.3676 2.1155 19.0773C2.32469 18.5479 2.61589 18.0651 2.94778 17.6075C3.05617 17.458 3.09485 17.3265 3.03576 17.1407C2.32524 14.9062 2.53865 12.7309 3.48205 10.6123C4.10558 9.21212 5.01853 8.01842 6.11811 6.96593C7.62209 5.52634 9.36311 4.45811 11.2661 3.64599C13.0326 2.89218 14.8699 2.40354 16.7668 2.12388C17.9298 1.9524 19.0967 1.86861 20.2666 1.86861ZM20.2666 0C19.0037 0 17.736 0.092496 16.4987 0.274919C15.4621 0.427741 14.4469 0.639382 13.4816 0.903896C12.4718 1.1806 11.4834 1.52419 10.5438 1.92513C9.47209 2.38249 8.46574 2.90927 7.55272 3.49083C6.5692 4.1173 5.65726 4.83052 4.84223 5.61066C4.19592 6.22929 3.62033 6.88103 3.13143 7.54779C2.59719 8.27637 2.14637 9.04989 1.79147 9.84687C0.721546 12.2496 0.483921 14.6688 1.0823 17.048C0.79742 17.4976 0.570345 17.9392 0.39398 18.3855C0.262048 18.7193 0.0816386 19.2335 0.0380894 19.8427C-0.032499 20.8297 0.00966027 21.4235 0.0474815 21.7843C0.121755 22.4925 0.274304 23.1151 0.513866 23.6873C0.709248 24.1541 0.96313 24.5828 1.27198 24.9682C1.27118 26.1532 1.33473 27.1324 1.47172 28.0471C1.84125 30.5151 2.98627 32.6064 4.87495 34.2629C5.77197 35.0496 6.79834 35.7054 8.01271 36.2677C9.30478 36.866 10.7283 37.3251 12.3647 37.6711C14.2972 38.0798 16.3182 38.308 18.5431 38.3688C19.3098 38.3898 20.023 38.4 20.7234 38.4C22.7313 38.4 24.5447 38.3142 26.2671 38.1378C27.7788 37.983 29.0333 37.7739 30.2152 37.4797C31.7074 37.1083 32.9885 36.6085 34.1317 35.9516C36.1195 34.8094 37.5739 33.1756 38.4545 31.0956C38.9251 29.984 39.2467 28.8055 39.4377 27.4925C39.5861 26.4722 39.6402 25.4307 39.6014 24.3243C39.7916 24.1215 39.9609 23.9018 40.108 23.6665C40.388 23.2188 40.5874 22.7152 40.7004 22.1696C40.8379 21.5064 40.9026 20.8511 40.8927 20.2219C40.8819 19.5335 40.7819 18.8547 40.5953 18.2044C40.3945 17.5044 40.0982 16.8159 39.7124 16.1522C39.9559 14.6329 39.8594 13.075 39.4241 11.5138C39.1811 10.642 38.8317 9.78935 38.3857 8.97958C37.9714 8.22749 37.4608 7.48922 36.8681 6.78529C36.2009 5.99294 35.4382 5.25395 34.6012 4.58887C33.8242 3.97138 32.9573 3.39729 32.0247 2.88254C30.4175 1.9955 28.6862 1.3048 26.8787 0.829618C25.1789 0.382724 23.3586 0.112775 21.4685 0.0272647C21.0685 0.00917316 20.6641 0 20.2666 0Z" fill="white"/>
</g>
<defs>
<clipPath id="clip0_3910_394">
<rect width="41" height="38" fill="white"/>
</clipPath>
</defs>
</svg>
